<?xml version="1.0" encoding="utf-8"?>
<!-- Generator: Adobe Illustrator 16.0.0, SVG Export Plug-In . SVG Version: 6.00 Build 0)  -->
<!DOCTYPE svg PUBLIC "-//W3C//DTD SVG 1.1//EN" "http://www.w3.org/Graphics/SVG/1.1/DTD/svg11.dtd">
<svg version="1.1" id="Layer_1" xmlns="http://www.w3.org/2000/svg" xmlns:xlink="http://www.w3.org/1999/xlink" x="0px" y="0px"
	 width="5785.835px" height="991.892px" viewBox="-2531.302 -433.955 5785.835 991.892"
	 enable-background="new -2531.302 -433.955 5785.835 991.892" xml:space="preserve">
<g>
	<path fill="#FFFFFF" d="M-1739.4-433.946c-0.621,95.828-1.664,191.641-1.773,287.469c-0.266,218.375-0.09,436.742-0.09,655.125
		c0,14.384,0,28.759,0,45.695c-74.43,0-145.488,0-220.281,0c0-136.07,0-271.297,0-409.609c-115.957,0-228.246,0-344.414,0
		c0,135.383,0,270.578,0,413.203c-77.566,0-151.465,0-225.344,0c0.008-330.633,0.008-661.258,0.008-991.883
		c75.145,0,149.559,0,223.969,0c0,129.727,0,259.461,0,389.672c116.488,0,229.711,0,343.961,0c0-132.062,0-260.867,0-389.672
		C-1888.709-433.946-1814.057-433.946-1739.4-433.946z"/>
	<path fill="#FFFFFF" d="M620.307-433.946c43.898,123.984,87.203,248.172,131.828,371.898
		c69.07,191.5,139.055,382.664,208.517,574.016c4.852,13.367,8.608,27.148,14.163,44.875c-74.077,0-143.163,0.853-212.18-1.047
		c-9.086-0.242-21.922-12.859-25.969-22.664c-19.266-46.719-34.555-95.117-54.875-141.336c-5.227-11.891-23.453-25.469-35.914-25.68
		c-114.602-1.969-229.258-0.633-343.891-1.617c-21.477-0.188-30.18,8.227-36.562,27.461c-15.5,46.703-32.234,93.078-50.914,138.594
		c-4.43,10.789-18.164,24.797-28.078,25.164c-62.305,2.297-124.727,1.172-192.758,1.172c16.695-46.68,31.617-88.983,46.945-131.147
		c99.562-273.828,199.273-547.617,298.664-821.517c4.43-12.211,6.102-25.422,9.055-38.172
		C439.002-433.946,529.65-433.946,620.307-433.946z M613.799,196.976C568.088,63.008,524.33-65.281,480.564-193.571
		c-3.517,0.172-7.048,0.352-10.556,0.523C425.775-64.242,381.533,64.554,336.057,196.976
		C432.057,196.976,519.564,196.976,613.799,196.976z"/>
	<path fill="#FFFFFF" d="M2900.018-433.946c43.906,123.984,87.203,248.172,131.828,371.898
		c69.07,191.5,139.062,382.664,208.523,574.016c4.852,13.367,8.609,27.148,14.164,44.875c-74.078,0-143.164,0.853-212.18-1.047
		c-9.086-0.242-21.93-12.853-25.978-22.664c-19.266-46.711-34.555-95.117-54.875-141.336c-5.227-11.891-23.444-25.469-35.905-25.68
		c-114.603-1.969-229.259-0.633-343.898-1.617c-21.477-0.188-30.164,8.219-36.555,27.461c-15.5,46.703-32.234,93.078-50.906,138.586
		c-4.438,10.797-18.172,24.805-28.086,25.164c-62.305,2.297-124.734,1.172-192.758,1.172c16.695-46.68,31.617-88.983,46.945-131.147
		c99.555-273.829,199.272-547.617,298.655-821.517c4.431-12.211,6.103-25.422,9.062-38.172
		C2718.713-433.946,2809.361-433.946,2900.018-433.946z M2615.877,196.25c94.672,0,183.227,0,277.242,0
		C2848.205,64.437,2804.166-64.774,2760.127-194c-3.484,0.367-6.969,0.727-10.453,1.086
		C2705.518-64.438,2661.346,64.023,2615.877,196.25z"/>
	<path fill="#FFFFFF" d="M-171.592-433.946c13.816,4.125,27.578,8.453,41.457,12.32C17.369-380.43,101.346-248.68,83.26-86.672
		C67.424,55.242-55.373,168.187-201.807,172.258c-87.48,2.438-175.082,0.453-267.352,0.453c0,66.172,0,128.297,0,190.43
		c0,62.478,0,124.938,0,190.594c-73.105,0-144.184,0-222.367,0c0-328.555,0-658.108,0-987.671
		C-518.217-433.946-344.904-433.946-171.592-433.946z M-467.342-1.156c74.781,0,145.312,2.055,215.656-0.617
		c62.383-2.375,109.461-51.383,114.453-112.648c5.633-69.172-29.75-129.172-94.832-136c-77.039-8.094-155.582-1.898-235.285-1.898
		C-467.342-170.024-467.342-87.938-467.342-1.156z"/>
	<path fill="#FFFFFF" d="M-755.518-433.946c-109.84,197.617-219.961,395.07-328.93,593.172c-7.793,14.156-9.816,32.945-9.969,49.609
		c-0.887,99.859-0.438,199.742-0.445,299.608c0,14.438,0,28.859,0,45.837c-73.715,0-143.625,0-218.555,0
		c-0.566-12.837-1.711-26.812-1.734-40.781c-0.16-98.539,1.238-197.117-0.992-295.602c-0.566-25.18-7.719-52.664-19.793-74.758
		c-98.832-180.93-199.598-360.805-299.543-541.141c-6.336-11.414-10.664-23.945-15.938-35.953c82.664,0,165.312,0,247.969,0
		c67.551,131.367,135.105,262.719,206.535,401.641c11.715-19.539,18.777-30.141,24.688-41.359
		c43.922-83.312,87.961-166.562,131.219-250.219c18.727-36.219,35.719-73.344,53.504-110.055
		C-910.166-433.946-832.838-433.946-755.518-433.946z"/>
	<path fill="#FFFFFF" d="M1628.182-433.946c0,57.016,0,114.031,0,177.484c-63.227,0-123.883,0-184.53,0
		c-95.431,0-95.431,0-95.431,96.195c0,221,0,442,0,663c0,15.931,0,31.853,0,50.984c-71.508,0-141.195,0-215.445,0
		c-0.655-14.727-1.93-30.094-1.938-45.461c-0.133-239.641-0.891-479.289,0.742-718.914c0.25-37.367-11.133-47.758-47.375-46.578
		c-76.969,2.508-154.094,0.773-239.922,0.773c0-61.516,0-119.508,0-177.484C1105.58-433.946,1366.877-433.946,1628.182-433.946z"/>
	<g>
		<path fill="#FFFFFF" d="M1723.115,557.298c0-58.629,0-116.886,0-175.518c18.509,0,36.777,0,55.591,0c0-21.416,0-42.472,0-63.894
			c8.144,0,15.747,0,23.749,0c0-170.731,0-341.09,0-512c-7.588,0-15.318,0-23.408,0c0-21.479,0-42.412,0-63.894
			c-18.748,0-37.137,0-55.85,0c0-58.926,0-117.301,0-175.946c151.684,0.001,303.258,0.001,455.224,0.001
			c0,58.303,0,116.679,0,175.607c-15.642,0-31.364,0-47.452,0c0,21.479,0,42.411,0,63.893c-10.745,0-21.142,0-31.837,0
			c0,170.909,0,341.268,0,512c10.411,0,20.681,0,31.496,0c0,21.416,0,42.47,0,64.069c16.263,0,31.985,0,47.939,0
			c0,58.809,0,117.064,0,175.681C2026.855,557.298,1875.162,557.298,1723.115,557.298z M1907.197-194.029
			c0,170.766,0,341.105,0,511.301c32.063,0,63.772,0,95.369,0c0-170.635,0-340.856,0-511.301
			C1970.709-194.029,1939.118-194.029,1907.197-194.029z"/>
	</g>
</g>
</svg>
