<?xml version="1.0" encoding="utf-8"?>
<!-- Generator: Adobe Illustrator 16.0.0, SVG Export Plug-In . SVG Version: 6.00 Build 0)  -->
<!DOCTYPE svg PUBLIC "-//W3C//DTD SVG 1.1//EN" "http://www.w3.org/Graphics/SVG/1.1/DTD/svg11.dtd">
<svg version="1.1" id="Layer_1" xmlns="http://www.w3.org/2000/svg" xmlns:xlink="http://www.w3.org/1999/xlink" x="0px" y="0px"
	 width="455.453px" height="991.25px" viewBox="0 0 455.453 991.25" enable-background="new 0 0 455.453 991.25"
	 xml:space="preserve">
<g>
	<path fill-rule="evenodd" clip-rule="evenodd" fill="#FFFFFF" d="M0,991.25c0-58.629,0-116.886,0-175.518
		c18.509,0,36.777,0,55.591,0c0-21.416,0-42.471,0-63.893c8.144,0,15.747,0,23.749,0c0-170.732,0-341.09,0-512
		c-7.588,0-15.318,0-23.408,0c0-21.479,0-42.412,0-63.894c-18.748,0-37.137,0-55.85,0c0-58.926,0-117.301,0-175.946
		C151.765,0,303.34,0,455.306,0c0,58.303,0,116.679,0,175.607c-15.642,0-31.365,0-47.453,0c0,21.479,0,42.411,0,63.893
		c-10.745,0-21.141,0-31.836,0c0,170.909,0,341.268,0,512c10.411,0,20.68,0,31.496,0c0,21.416,0,42.47,0,64.069
		c16.262,0,31.985,0,47.939,0c0,58.809,0,117.065,0,175.681C303.74,991.25,152.047,991.25,0,991.25z M184.082,239.924
		c0,170.766,0,341.105,0,511.301c32.065,0,63.774,0,95.369,0c0-170.635,0-340.857,0-511.301
		C247.594,239.924,216.003,239.924,184.082,239.924z"/>
</g>
</svg>
